<svg width="112" height="112" viewBox="0 0 112 112" fill="none" xmlns="http://www.w3.org/2000/svg">
<path id="Vector" d="M74.2723 0.699646C75.6711 0.699646 77.0127 1.25526 78.0018 2.24427C78.991 3.23328 79.5466 4.57467 79.5466 5.97333V11.2418L105.918 11.247V42.8892L95.2643 42.8839L109.858 82.9428C110.85 85.6219 111.287 88.4745 111.143 91.3275C110.999 94.1805 110.276 96.9745 109.02 99.5401C107.764 102.106 105.999 104.389 103.834 106.253C101.668 108.116 99.1466 109.52 96.4221 110.38C93.6975 111.24 90.8267 111.537 87.9838 111.255C85.1408 110.972 82.3849 110.115 79.8831 108.735C77.3814 107.355 75.186 105.482 73.43 103.229C71.674 100.975 70.3941 98.3888 69.6678 95.626H47.2359C46.0366 100.254 43.3011 104.339 39.4774 107.21C35.6536 110.081 30.9682 111.568 26.1884 111.429C21.4086 111.29 16.8177 109.532 13.1674 106.444C9.51712 103.355 7.02381 99.1192 6.09577 94.4289C4.38654 93.5375 2.9546 92.1944 1.95581 90.5458C0.957025 88.8972 0.429652 87.0062 0.431094 85.0787V16.5207C0.431094 15.122 0.986785 13.7807 1.97592 12.7917C2.96506 11.8026 4.30661 11.247 5.70546 11.247H42.6261C44.0249 11.247 45.3665 11.8026 46.3556 12.7917C47.3447 13.7807 47.9004 15.122 47.9004 16.5207V58.7102C47.9006 60.0019 48.3749 61.2486 49.2333 62.2139C50.0918 63.1792 51.2747 63.7959 52.5577 63.947L53.1748 63.9839H63.7235C65.0154 63.9837 66.2623 63.5095 67.2277 62.6512C68.1931 61.7928 68.8098 60.6101 68.961 59.3272L68.9979 58.7102V11.247H53.1748V0.699646H74.2723ZM26.8029 79.805C24.0052 79.805 21.3221 80.9162 19.3439 82.8942C17.3656 84.8723 16.2542 87.555 16.2542 90.3524C16.2542 93.1497 17.3656 95.8325 19.3439 97.8105C21.3221 99.7885 24.0052 100.9 26.8029 100.9C29.6006 100.9 32.2838 99.7885 34.262 97.8105C36.2403 95.8325 37.3517 93.1497 37.3517 90.3524C37.3517 87.555 36.2403 84.8723 34.262 82.8942C32.2838 80.9162 29.6006 79.805 26.8029 79.805ZM90.0954 79.7997C87.2977 79.7997 84.6146 80.9109 82.6363 82.889C80.658 84.867 79.5466 87.5497 79.5466 90.3471C79.5466 93.1444 80.658 95.8272 82.6363 97.8052C84.6146 99.7832 87.2977 100.894 90.0954 100.894C92.8931 100.894 95.5762 99.7832 97.5545 97.8052C99.5327 95.8272 100.644 93.1444 100.644 90.3471C100.644 87.5497 99.5327 84.867 97.5545 82.889C95.5762 80.9109 92.8931 79.7997 90.0954 79.7997ZM84.0404 42.8839H79.5466V58.7102C79.5466 62.9062 77.8796 66.9304 74.9122 69.8974C71.9448 72.8644 67.9201 74.5313 63.7235 74.5313H53.1748C49.9023 74.5311 46.7104 73.5168 44.0382 71.628C41.3661 69.7391 39.3451 67.0686 38.2536 63.9839H10.9798V76.3982C13.516 73.5267 16.7859 71.3995 20.4391 70.2448C24.0923 69.0901 27.991 68.9513 31.717 69.8434C35.4431 70.7355 38.856 72.6248 41.5899 75.3088C44.3238 77.9927 46.2756 81.3701 47.2359 85.0787H69.6625C70.9915 79.9356 74.2112 75.4828 78.6791 72.6089C83.147 69.7349 88.5345 68.6512 93.7663 69.574L84.0404 42.8839ZM37.3517 37.6155H10.9798V53.4365H37.3517V37.6155ZM95.3698 21.7944H79.5466V32.3418H95.3698V21.7944ZM37.3517 21.7944H10.9798V27.0681H37.3517V21.7944Z" fill="white"/>
</svg>
